<svg id="Layer_1" data-name="Layer 1" xmlns="http://www.w3.org/2000/svg" viewBox="0 0 150 150"><defs><style>.cls-1{fill:#9f2138;}</style></defs><title>call-icon-mobile</title><path class="cls-1" d="M104.75,65.61c0-1.35-.36-1.69-1.72-1.75l-2.14-.08a29.44,29.44,0,0,0-4.19-12.15,25,25,0,0,0-9.19-8.91v1.7q0,6,0,12.1c0,.36,0,.72,0,1.07-.06.75-.69,1.65-1.3,1.67a10.42,10.42,0,0,1-3.64-.15,6.37,6.37,0,0,1-.11-.81c0-7.09,0-14.19,0-21.28,0-1.49-.24-2.34-2.15-2.29-3.26.08-6.53,0-9.8,0-.2,0-.41,0-.61,0-1,.08-1.34.4-1.4,1.41,0,.31,0,.61,0,.92q0,10.34,0,20.67c0,.49,0,1-.07,1.56-1.19,0-2.2,0-3.22,0a1.89,1.89,0,0,1-1.81-1.69,9.35,9.35,0,0,1,0-1.07q0-6.56,0-13.12c-.15,0-.26-.1-.35-.08a1.13,1.13,0,0,0-.41.16,24.66,24.66,0,0,0-5,4.31,30,30,0,0,0-4.34,6.63,24.13,24.13,0,0,0-2,6c-.21,1.13-.46,2.26-.71,3.45-.63,0-1.14,0-1.64,0-1.38,0-1.72.37-1.74,1.73,0,1.89,0,3.78,0,5.67,0,1.46.41,1.84,1.93,1.85h3c-.37.54-.49.76-.65.95a10.91,10.91,0,0,0-2.29,6.07,9,9,0,0,0,.56,4c.86,2.37,2,4.62,4.4,5.88a3.29,3.29,0,0,1,1.42,1.7A33.24,33.24,0,0,0,63.8,102.6c1.39,1.18,2.3,2.3,2.07,4.31-.17,1.44.68,2.08,2.24,2.32a4.16,4.16,0,0,0,.61,0H83.11a6.41,6.41,0,0,0,.76,0,2,2,0,0,0,2-2.09,7.86,7.86,0,0,0,0-1.38,1.52,1.52,0,0,1,1-1.69,11.67,11.67,0,0,0,1.78-1.15,28.67,28.67,0,0,0,9-11.54,4.89,4.89,0,0,1,1.5-2,8.43,8.43,0,0,0,2.1-2.45,16.92,16.92,0,0,0,1.39-4.15,10.25,10.25,0,0,0-.57-6.12,25.54,25.54,0,0,0-1.72-3.42.82.82,0,0,1,.26-.1l2.3,0c1.57,0,1.91-.34,1.92-1.84C104.76,69.39,104.76,67.5,104.75,65.61ZM83.44,97.27H80l-.16-1.77c-2.57-.11-5.09,0-7.71,0l-.23,1.85H68.59a16.5,16.5,0,0,1,.12-4.48c.46,0,.86-.06,1.26-.06H81.72c1.67,0,1.73.07,1.69,1.69,0,.46,0,.92,0,1.37S83.44,96.71,83.44,97.27ZM97,83.16a3.46,3.46,0,0,1-3.15,2.71,23,23,0,0,1-6.2,10.61c-.06-.64-.11-1-.11-1.33,0-1.58,0-3.17,0-4.75,0-1.21-.42-1.59-1.65-1.63H66.11c-1.29,0-1.65.38-1.64,1.63s0,2.45,0,3.67c0,.29,0,.59-.08.88a.86.86,0,0,1-1-.49A49.19,49.19,0,0,1,59.7,88c-.16-.37-.22-.78-.39-1.13a1.7,1.7,0,0,0-1.25-1.16,4,4,0,0,1-3.27-3.66,16.77,16.77,0,0,1,0-1.84c0-2.51.82-3.37,3.41-3.58V73.18h36c.42,1,0,2.18.24,3.25,2.25.74,2.8,1.42,2.87,3.86A9.58,9.58,0,0,1,97,83.16Z"/><path class="cls-1" d="M67.81,77.18a2.53,2.53,0,0,0-2.23,2.26,2.41,2.41,0,0,0,2.25,2.23,2.47,2.47,0,0,0,2.26-2.25A2.67,2.67,0,0,0,67.81,77.18Z"/><path class="cls-1" d="M84.75,77.19a2.85,2.85,0,0,0-2.28,2.29,2.64,2.64,0,0,0,2.36,2.19A2.26,2.26,0,0,0,87,79.39,2.44,2.44,0,0,0,84.75,77.19Z"/><path class="cls-1" d="M74.53,84a1.92,1.92,0,0,0,2.22,1.57,2,2,0,0,0,2-1.62,8.22,8.22,0,0,1-2.12.59A8.75,8.75,0,0,1,74.53,84Z"/><path class="cls-1" d="M34.08,143.08V9.31c1.1-4.38,4.25-6.29,8.42-6.94h65.9c4.37.64,8.29,1.89,9.41,6.94V143.08c-.82,4.09-3.61,6.06-7.43,6.94H41A9.37,9.37,0,0,1,34.08,143.08Zm78.79-70.34c0-16.26,0-32.52,0-48.77,0-2.38-.87-3.24-3.18-3.24q-33.67.05-67.34,0c-2.43,0-3.34,1-3.34,3.44q.06,48.28,0,96.56c0,2.6,1.08,3.5,3.55,3.49q33.42-.06,66.85,0c2.5,0,3.49-.8,3.47-3.46C112.83,104.76,112.88,88.75,112.88,72.74ZM69.26,135.88a6.94,6.94,0,1,0,13.88,0,6.94,6.94,0,1,0-13.88,0Zm31.14-.27a4.4,4.4,0,0,0-8.79-.14A4.61,4.61,0,0,0,95.91,140,4.72,4.72,0,0,0,100.39,135.61Zm-39.93.15a4.27,4.27,0,1,0-4.4,4.31A4.34,4.34,0,0,0,60.46,135.76Z"/></svg>