<svg id="Layer_1" data-name="Layer 1" xmlns="http://www.w3.org/2000/svg" viewBox="0 0 150 150"><defs><style>.cls-1{fill:#9f2138;}</style></defs><title>call-icon</title><path class="cls-1" d="M27,77.47c-2.41,0-4.23,0-6,0-3.07,0-3.88-.79-3.9-3.74,0-3.81,0-7.62,0-11.44,0-2.75.73-3.4,3.51-3.49,1,0,2,0,3.32,0,.5-2.41,1-4.68,1.43-7a48.69,48.69,0,0,1,4.14-12,60.54,60.54,0,0,1,8.76-13.38,49.77,49.77,0,0,1,10.14-8.7,2.27,2.27,0,0,1,.83-.33c.18,0,.39.09.7.17q0,13.21,0,26.47a18.87,18.87,0,0,0,0,2.16,3.82,3.82,0,0,0,3.66,3.4c2.05.06,4.11,0,6.5,0,.05-1.17.13-2.15.13-3.14q0-20.86,0-41.72c0-.62,0-1.24,0-1.85C60.29.87,60.93.23,63,.06c.41,0,.82,0,1.24,0C70.83,0,77.43.17,84,0c3.85-.1,4.36,1.63,4.34,4.63-.13,14.32-.09,28.64-.09,43a12.86,12.86,0,0,0,.22,1.64c2.46.76,4.92.39,7.34.29,1.24-.05,2.5-1.86,2.63-3.38.06-.72,0-1.44,0-2.16q0-12.21,0-24.42c0-1,0-2,0-3.42a50.56,50.56,0,0,1,18.55,18,59.42,59.42,0,0,1,8.45,24.52l4.32.17c2.75.12,3.45.79,3.48,3.53,0,3.81,0,7.62,0,11.44,0,3-.72,3.66-3.88,3.71-1.54,0-3.09,0-4.63.06a1.65,1.65,0,0,0-.53.2,51.54,51.54,0,0,1,3.46,6.9c1.33,4,2.34,8,1.16,12.35-.78,2.87-1.3,5.77-2.8,8.38a17,17,0,0,1-4.24,4.94,9.87,9.87,0,0,0-3,4,57.87,57.87,0,0,1-18.11,23.3A23.55,23.55,0,0,1,97,140a3.06,3.06,0,0,0-2,3.41,15.86,15.86,0,0,1,0,2.78,4.13,4.13,0,0,1-4,4.21,12.93,12.93,0,0,1-1.54,0H60.54a8.39,8.39,0,0,1-1.23,0c-3.15-.47-4.86-1.76-4.53-4.68.47-4.07-1.37-6.33-4.17-8.71a62.42,62.42,0,0,1-8-8.28A63,63,0,0,1,33.9,115,6.64,6.64,0,0,0,31,111.62c-4.85-2.56-7.15-7.1-8.87-11.88A18.08,18.08,0,0,1,21,91.64c.55-4.35,1.55-8.75,4.63-12.26C26,79,26.23,78.57,27,77.47Zm85.43,6.7c-.48-2.16.36-4.46-.48-6.57H39.22v7c-5.21.43-6.8,2.17-6.88,7.23a33.84,33.84,0,0,0,.08,3.71A8.14,8.14,0,0,0,39,103c1.47.27,2,1.26,2.53,2.35.35.72.48,1.55.79,2.29,2,4.62,4.84,8.73,7.47,13a1.73,1.73,0,0,0,2.08,1c.05-.6.16-1.19.15-1.79,0-2.47-.08-4.94-.08-7.42s.72-3.21,3.32-3.28H95.15c2.49.08,3.31.85,3.34,3.3,0,3.19,0,6.39,0,9.58,0,.69.11,1.38.23,2.68a46.37,46.37,0,0,0,12.52-21.42,7,7,0,0,0,6.37-5.47,19.34,19.34,0,0,0,.62-5.79C118.06,87,116.95,85.66,112.41,84.18ZM90.26,126.24c0-1.13,0-2,0-2.94s-.07-1.85-.05-2.77c.07-3.29,0-3.42-3.42-3.42q-11.87,0-23.74,0c-.8,0-1.6.07-2.54.12-.67,3-.39,6-.24,9.05h6.61l.47-3.73c5.29,0,10.39-.11,15.57.1l.33,3.58Z"/><path class="cls-1" d="M58.75,94.75a4.87,4.87,0,0,1-4.54-4.51,5.11,5.11,0,0,1,4.5-4.56c2,0,4.61,2.49,4.61,4.53A5,5,0,0,1,58.75,94.75Z"/><path class="cls-1" d="M97.34,90.15a4.56,4.56,0,0,1-4.27,4.6c-2.1.07-4.66-2.31-4.77-4.43-.09-1.82,2.65-4.57,4.6-4.62A4.92,4.92,0,0,1,97.34,90.15Z"/><path class="cls-1" d="M72.28,99.54a17.67,17.67,0,0,0,4.26,1.09c1.3,0,2.61-.7,4.27-1.19-.65,2.56-2.38,3.1-4,3.27A3.87,3.87,0,0,1,72.28,99.54Z"/></svg>