<svg id="Layer_1" data-name="Layer 1" xmlns="http://www.w3.org/2000/svg" viewBox="0 0 150 150"><defs><style>.cls-1{fill:#9f2138;}</style></defs><title>call-icon-phone</title><path class="cls-1" d="M124.12,50.38c0-2.21-.59-2.75-2.81-2.85l-3.49-.13A48,48,0,0,0,111,27.58,40.87,40.87,0,0,0,96,13v2.77q0,9.87,0,19.74c0,.58,0,1.17,0,1.75-.1,1.23-1.12,2.69-2.12,2.73-2,.08-3.94.38-5.93-.24a10.4,10.4,0,0,1-.18-1.32c0-11.58,0-23.15.07-34.73,0-2.42-.39-3.82-3.51-3.74-5.33.13-10.66,0-16,0-.33,0-.67,0-1,0C65.65.19,65.14.7,65,2.35c0,.5,0,1,0,1.5q0,16.86,0,33.73c0,.8-.07,1.6-.11,2.54-1.94,0-3.6,0-5.26,0a3.09,3.09,0,0,1-3-2.75,15.25,15.25,0,0,1,0-1.75q0-10.71,0-21.4c-.25-.07-.42-.16-.56-.14a1.84,1.84,0,0,0-.67.27,40.24,40.24,0,0,0-8.2,7,48.94,48.94,0,0,0-7.08,10.82,39.36,39.36,0,0,0-3.34,9.71c-.35,1.85-.75,3.68-1.16,5.63-1,0-1.86,0-2.68,0-2.25.07-2.81.6-2.84,2.82,0,3.08,0,6.16,0,9.24,0,2.39.68,3,3.16,3,1.47,0,2.94,0,4.89,0-.6.89-.8,1.25-1.06,1.55-2.49,2.83-3.29,6.39-3.74,9.91a14.62,14.62,0,0,0,.91,6.55c1.4,3.86,3.25,7.53,7.17,9.6A5.37,5.37,0,0,1,43.81,93a50.88,50.88,0,0,0,7,11,50.46,50.46,0,0,0,6.51,6.69c2.26,1.92,3.75,3.75,3.37,7-.27,2.36,1.11,3.4,3.66,3.78a6.79,6.79,0,0,0,1,0H88.83a10.45,10.45,0,0,0,1.25,0,3.34,3.34,0,0,0,3.2-3.4,12.82,12.82,0,0,0,0-2.25,2.47,2.47,0,0,1,1.6-2.76,19,19,0,0,0,2.91-1.88,46.78,46.78,0,0,0,14.64-18.83,8,8,0,0,1,2.45-3.26,13.75,13.75,0,0,0,3.43-4,27.6,27.6,0,0,0,2.27-6.77c1-3.52.13-6.77-.94-10a41.67,41.67,0,0,0-2.8-5.58,1.33,1.33,0,0,1,.43-.16c1.25,0,2.5,0,3.75,0,2.56,0,3.12-.55,3.14-3C124.15,56.54,124.15,53.46,124.12,50.38ZM89.37,102H83.7l-.27-2.9c-4.18-.17-8.31,0-12.59-.08l-.38,3H65.13a26.92,26.92,0,0,1,.19-7.32c.76,0,1.41-.1,2.06-.1H86.56c2.73,0,2.81.11,2.76,2.77,0,.75,0,1.49,0,2.24S89.37,101.13,89.37,102Zm22.09-23a5.65,5.65,0,0,1-5.15,4.42,37.48,37.48,0,0,1-10.12,17.32c-.09-1-.18-1.61-.18-2.17,0-2.58,0-5.16,0-7.75,0-2-.68-2.6-2.7-2.66H61.08c-2.1.06-2.69.62-2.68,2.65s.06,4,.07,6c0,.48-.08,1-.12,1.44a1.4,1.4,0,0,1-1.68-.79c-2.12-3.44-4.44-6.75-6-10.49-.26-.6-.36-1.27-.64-1.85a2.78,2.78,0,0,0-2-1.9,6.58,6.58,0,0,1-5.33-6,27.36,27.36,0,0,1-.06-3c.06-4.09,1.35-5.5,5.56-5.85v-5.7h58.78c.68,1.7,0,3.56.39,5.31,3.66,1.2,4.57,2.31,4.69,6.29A15.64,15.64,0,0,1,111.46,79Z"/><path class="cls-1" d="M63.86,69.27a4.13,4.13,0,0,0-3.64,3.68,3.94,3.94,0,0,0,3.67,3.64,4,4,0,0,0,3.69-3.67A4.36,4.36,0,0,0,63.86,69.27Z"/><path class="cls-1" d="M91.5,69.28c-1.57,0-3.79,2.26-3.71,3.73a4.3,4.3,0,0,0,3.85,3.58,3.69,3.69,0,0,0,3.45-3.72A4,4,0,0,0,91.5,69.28Z"/><path class="cls-1" d="M74.83,80.47A3.13,3.13,0,0,0,78.46,83a3.27,3.27,0,0,0,3.27-2.64,13.41,13.41,0,0,1-3.45,1A14.28,14.28,0,0,1,74.83,80.47Z"/><path class="cls-1" d="M61.91,150.37A13,13,0,0,1,57.8,149a41.16,41.16,0,0,1-4.54-2.85,99.17,99.17,0,0,1-10.09-7.95,87.32,87.32,0,0,1-6.57-6.75c-3.45-3.92-6.79-7.93-10-12.07a81.59,81.59,0,0,1-8.41-13.58c-1.24-2.51-2.44-5-3.45-7.66a15.83,15.83,0,0,1-1.06-4.5,7,7,0,0,1,.09-2,4.2,4.2,0,0,1,1.47-2.43,7.1,7.1,0,0,1,.73-.55,63.43,63.43,0,0,1,6.19-3.57,12.23,12.23,0,0,1,2.53-.95,2.82,2.82,0,0,1,2.43.47,7.52,7.52,0,0,1,1.08,1c2.92,3.19,5.71,6.48,8.43,9.84a10.83,10.83,0,0,1,1,1.57,2.27,2.27,0,0,1-.28,2.78c-.76.9-1.52,1.79-2.29,2.68-.59.68-1.21,1.34-1.8,2-.22.25-.41.54-.6.81a3.93,3.93,0,0,0-.43,3.86,6.63,6.63,0,0,0,.58,1.17A40.43,40.43,0,0,0,36,114.7c3.09,3.87,6.23,7.69,9.57,11.34.76.83,1.6,1.59,2.42,2.36a4.94,4.94,0,0,0,2.66,1.28,2.82,2.82,0,0,0,1.52-.14,18,18,0,0,0,1.88-.87c.68-.37,1.31-.82,2-1.22,1-.59,2-1.17,3-1.74a2.29,2.29,0,0,1,2.82.24,11.21,11.21,0,0,1,1.36,1.3c2.77,3.25,5.48,6.55,8.06,10a8.23,8.23,0,0,1,.86,1.45,2.71,2.71,0,0,1,0,2.3A12.35,12.35,0,0,1,70.2,144c-1.33,1.6-2.71,3.15-4.07,4.72a5.5,5.5,0,0,1-.56.53A4.41,4.41,0,0,1,61.91,150.37Z"/></svg>