<svg id="Layer_1" data-name="Layer 1" xmlns="http://www.w3.org/2000/svg" viewBox="0 0 150 150"><defs><style>.cls-1{fill:#9f2138;}</style></defs><title>icons</title><path class="cls-1" d="M92.36,71.93a17.82,17.82,0,0,1,6.25-2,7,7,0,0,1,6.07,2c.32.3.61.63.93,1a16.36,16.36,0,0,1,6-1.69,7.06,7.06,0,0,1,7.65,4.79c3.29,11.88,6.62,23.74,9.6,35.7a23.8,23.8,0,0,1-17.35,28.88c-4.08,1.08-8.13,2.31-12.26,3.16-8.72,1.78-17,.6-24.28-4.77A29.85,29.85,0,0,1,64.24,124c-1.36-4-2.36-8.2-3.49-12.32-1.34-4.92-2.65-9.85-4-14.78,0-.11-.05-.23-.08-.36,3.95-1.25,7.87-2.32,12.12-.7-.36-1.39-.68-2.61-1-3.82-1.07-4.06-2.14-8.12-3.23-12.17-.68-2.52-1.41-5-2.08-7.53-.94-3.54-2-7.06-2.76-10.62a9.07,9.07,0,0,1,17.72-3.81c1.2,4.4,2.35,8.82,3.52,13.23a2,2,0,0,0,.14.33c1.5-.4,3-.82,4.42-1.17A7.73,7.73,0,0,1,92.36,71.93ZM64.47,101.26c0,.25.06.37.09.48q1.73,6.44,3.46,12.87a61.75,61.75,0,0,0,3.09,9.84,22.52,22.52,0,0,0,10.43,11.32,24.51,24.51,0,0,0,16.67,1.73c4-.88,7.9-2,11.83-3.09a17.71,17.71,0,0,0,12.64-21.85Q119.62,101,116.5,89.51q-1.46-5.44-2.95-10.88c-.29-1.06-.81-1.42-1.9-1.19a25,25,0,0,0-2.74.77,1.29,1.29,0,0,0-.84,1.7c.72,2.69,1.46,5.37,2.14,8.07A3.06,3.06,0,0,1,108,91.74a3.11,3.11,0,0,1-3.84-2.18c-.29-1-.54-2-.82-3-.81-3-1.65-6-2.42-9-.32-1.23-.8-1.61-2-1.31-.76.18-1.5.4-2.25.61-1.28.35-1.54.81-1.2,2.08,1.06,4,2.16,8,3.16,12a4.07,4.07,0,0,1-.1,2.14A3,3,0,0,1,95.6,95a3.06,3.06,0,0,1-2.89-2.21c-.66-2.32-1.27-4.66-1.9-7q-1.12-4.13-2.24-8.26c-.24-.88-.85-1.33-1.59-1.16-.9.21-1.8.44-2.69.69a1.45,1.45,0,0,0-1.12,1.89c.12.52.22,1.05.35,1.57,1.21,4.5,2.43,9,3.63,13.5a3.12,3.12,0,1,1-6,1.54L73.47,67c-.68-2.55-1.36-5.09-2.05-7.64a2.69,2.69,0,0,0-2.23-2.07A2.88,2.88,0,0,0,66,61.09c1.16,4,2.23,8.09,3.32,12.14.59,2.19,1.1,4.4,1.69,6.58,1.18,4.41,2.4,8.81,3.58,13.21q3,11.28,6.05,22.56a3.14,3.14,0,1,1-6,1.61q-1.16-4.27-2.29-8.56a10.79,10.79,0,0,0-1.85-4.34A8.11,8.11,0,0,0,64.47,101.26Z"/><path class="cls-1" d="M38.18,86.39h.92c7.52,0,15,0,22.56,0,.87,0,1.19.27,1.36,1.07.23,1.14.57,2.26.89,3.48H38.15c0,.32,0,.56,0,.8,0,3.45.07,6.91,0,10.36a9.2,9.2,0,0,0,9.37,9.37c3-.06,6,0,9,0,.36,0,.62,0,.74.47.53,2.08,1.1,4.15,1.67,6.27a2,2,0,0,1-.37.07c-4.07,0-8.14.08-12.2,0a15.75,15.75,0,0,1-14.59-12.34,18.91,18.91,0,0,1-.42-3.85c0-30.16,0-49.31,0-79.47a9.13,9.13,0,0,1,9.49-9.47H92.52A9.15,9.15,0,0,1,102,22.51c0,18.05,0,25.11,0,43.16v1a12.3,12.3,0,0,0-6.85.52V33.61H38.18ZM95.08,29c0-2.44,0-4.79,0-7.13A2.11,2.11,0,0,0,93.37,20a5,5,0,0,0-1-.08H40.55a2.26,2.26,0,0,0-2.4,2.47c0,2,0,4,0,6,0,.19,0,.38,0,.61Z"/><path class="cls-1" d="M66.59,26.73H58.87a2.28,2.28,0,1,1,0-4.55H74.42a2.28,2.28,0,1,1,0,4.55Z"/></svg>