<svg id="Layer_1" data-name="Layer 1" xmlns="http://www.w3.org/2000/svg" viewBox="0 0 300 300"><defs><style>.cls-1{fill:none;stroke:#fff;stroke-miterlimit:10;stroke-width:8px;}</style></defs><title>icons</title><path class="cls-1" d="M284.17,177c3.17-2,5.08-4.49,5.68-7.4.69-3.38-.43-7.42-3.15-11.37-2.32-3.36-4.27-6-5.88-8.24-9.07-12.43-9.31-14.61-3.24-29.1,1.06-2.53,2.34-5.58,3.81-9.35,2.89-7.39.71-13.1-6.48-17-3.73-2-7.67-3.89-11.48-5.72l-1.34-.64c-8.36-4-12.59-10.48-12.57-19.22a92.76,92.76,0,0,0-1-11.94l-.33-2.61a12,12,0,0,0-12-10.63c-5.85-.12-11.13-.18-16.37.16-8.3.56-14.66-2.91-19-10.29-.74-1.28-1.61-2.56-2.53-3.91-.59-.86-1.17-1.73-1.74-2.6-9.1-14.1-12.1-14.84-26.72-6.65-.46.26-.93.5-1.39.73a12,12,0,0,0-1.57.89c-6.41,5.12-16.74,9.29-29.56.12l-.81-.58c-2.27-1.63-4.61-3.32-6.5-3.76l-1.69-.39c-3.38-.8-8.48-2-10.43-1.1-3.24,1.51-6.81,5.36-10.07,10.84-3.48,5.86-12.62,21.27-29.65,16.56C57.85,43.66,57.26,45.14,56,61.81,54.74,78.63,47.28,88.5,32.51,92.88a16.3,16.3,0,0,0-3.08,1.57l-.78.46c-3.72,2.16-6.34,5.25-7.18,8.46a8.61,8.61,0,0,0,1,6.75c10.66,18.13,8.68,34.15-6.21,50.42a8.71,8.71,0,0,0-2.2,6.55,14,14,0,0,0,5,9.52c.85.72,1.69,1.46,2.52,2.2a62.64,62.64,0,0,0,7.05,5.65c7.94,5.15,11.17,13,9.62,23.21q-1,6.58-2.15,13.14c-1.33,7.59,2.7,13.56,10.27,15.21l3.34.74c3.68.82,7.15,1.59,10.68,2.17,8.16,1.35,13.76,6.25,16.21,14.18C78.13,258,80,263,81.87,267.84c2.59,6.8,6.45,9.12,13.31,8a105.3,105.3,0,0,0,14-3.6l1.41-.43a25.73,25.73,0,0,1,7.48-1.18A20,20,0,0,1,133.52,278a50.55,50.55,0,0,0,4.13,4.06c.59.54,1.18,1.08,1.76,1.62,5.72,5.39,10,7.89,13.24,7.75,3.06-.1,6.74-2.5,11.26-7.35,7.69-8.24,20.06-18.16,38.78-9.54h0a14.24,14.24,0,0,1,1.51.3c11.24,3,15.25.87,19.48-10.64,1.05-2.86,1.89-5.28,2.6-7.34,4.87-14.13,6.52-15.55,22.12-19,2.11-.47,4.55-1,7.39-1.67a8.21,8.21,0,0,1,1.24-.18c4.71-1,8.11-3,9.88-5.79,1.61-2.57,1.91-5.89.87-9.85C262.83,201.31,268.18,187.13,284.17,177ZM152.71,252.38h-.36c-55.45-1.19-98.05-43.24-99.11-97.81-.51-26.77,9.23-51.86,27.42-70.64s43.27-29.3,70.66-29.65h1.31c54.15,0,97.24,42.4,98.36,97.1C252.13,206.81,209.87,250.23,152.71,252.38Z"/><path class="cls-1" d="M183.93,127.06c-10.8,12.59-21.6,25.18-32.6,38L139,179.44,107.77,151.9c-3.78-3.34-5.17-3.49-5.39-3.49h0c-.05,0-1.35.2-4.6,4.72-1.42,2-1.58,2.57,2.47,7.4l1.06,1.28c7.28,8.93,14.89,17.88,22.24,26.53q7,8.26,14,16.56a25.77,25.77,0,0,0,3.15,3.31,24.69,24.69,0,0,0,2.72-3.36l15.81-22.27q11.14-15.69,22.27-31.39l3.53-5c7-9.89,14.26-20.11,21.28-30.22a4.43,4.43,0,0,0,1-2.16s-.23-.63-1.77-1.65c-.79-.52-1.56-1.09-2.33-1.65a20.68,20.68,0,0,0-3.15-2.06,6.58,6.58,0,0,0-1.23,1.23c-3.23,4-6.61,7.82-9.88,11.56Q186.43,124.16,183.93,127.06Z"/></svg>