<svg id="Layer_1" data-name="Layer 1" xmlns="http://www.w3.org/2000/svg" viewBox="0 0 300 300"><defs><style>.cls-1{fill:none;stroke:#fff;stroke-linecap:round;stroke-linejoin:round;stroke-width:8px;}</style></defs><title>icons</title><path class="cls-1" d="M103,232.32c-1.82,5-1.4,10.89-.78,16.07,5.55-6.86,14.77-3.08,15.55,4.26.75,7,.78,11.86,4.28,18.76,2.51-7.31,12.77-8.85,16.05-2.27.84,1.69.68,4.33,1.6,6.25,2,4.15,5.57,7.79,8.86,10.87-.11-6.08,8-13.75,14.06-8.89,1,.8,2,4.56,3.11,5.85,3.28,3.67,8.42,6,12.83,7.93-2.15-5.58,2.82-15.87,10.17-13.16,1.55.57,3.75,3.89,5.74,4.81,4.25,2,9.36,2.44,13.95,2.69-3.89-4.47-3-15.14,4.63-15.66,1.51-.1,4.57,2,6.56,2.29,4.86.7,10.34-.78,14.92-2.17-5.87-3.25-7.44-14.19-.14-16.44,1.74-.54,4.85.35,7-.21,4.48-1.17,8.76-4.16,12.39-6.88-8.28-1.3-9.07-9-6.31-15.39"/><path class="cls-1" d="M221.38,231.13a51.85,51.85,0,0,1-88.3-.6"/><path class="cls-1" d="M292.46,198c-6.7-69.81-56.53-98.37-106.58-109.21l-6.24-13.17,26.18-12.4a22.62,22.62,0,1,0,13.35-36.41c-.28.05-.54.14-.82.2a14.16,14.16,0,0,0-6,1.34l-45,21.31L153.91,21.31A20.23,20.23,0,0,0,127,11.71L18.88,62.93A20.23,20.23,0,0,0,9.28,89.8l40.67,85.87a20,20,0,0,0,7.84,8.63A90.37,90.37,0,0,0,56.91,198c0,13.12,13.19,13.16,13.19,13.16h56a51.82,51.82,0,1,1,102.53,0H279.3C292.46,211.19,293.28,208.72,292.46,198ZM48,96.77a14.45,14.45,0,0,1,6.86-19.19L115,49.09a14.45,14.45,0,0,1,19.19,6.86L147.2,83.52A337.87,337.87,0,0,0,77,86.18l1.64,34.54H93.09a176.5,176.5,0,0,0-21,27Z"/><line class="cls-1" x1="50.66" y1="230.52" x2="292.68" y2="230.52"/><path class="cls-1" d="M156.28,212.6A22.94,22.94,0,1,1,200,207.37a23.08,23.08,0,0,1-1,3.83"/></svg>