<svg id="Layer_1" data-name="Layer 1" xmlns="http://www.w3.org/2000/svg" viewBox="0 0 300 300"><defs><style>.cls-1{fill:none;stroke:#fff;stroke-miterlimit:10;stroke-width:8px;}</style></defs><title>icons</title><path class="cls-1" d="M80.85,195,62.64,179.79s-8.36-8,.65-15.86c7-6.08,18.32,3,18.32,3s34.14,31.11,42.49,38.7,6.83,23.52,6.83,23.52v35.66H78.57V243.52S39.12,204.07,30.77,195,19.39,172.2,19.39,172.2V98.05c0-5.52,1-15,11.14-5.75C46.76,107.12,51.31,113,51.31,113s2.64,3.3,2.64,13.87v31.71s.7,7.67,3.62,8.65"/><rect class="cls-1" x="70.79" y="264.77" width="68.04" height="28.2"/><path class="cls-1" d="M222.9,195l18.21-15.18s8.36-8-.65-15.86c-7-6.08-18.32,3-18.32,3S188,198,179.65,205.59s-6.83,23.52-6.83,23.52v35.66h52.36V243.52S264.63,204.07,273,195s11.38-22.76,11.38-22.76V98.05c0-5.52-1-15-11.14-5.75C257,107.12,252.44,113,252.44,113s-2.64,3.3-2.64,13.87v31.71s-.7,7.67-3.62,8.65"/><rect class="cls-1" x="164.92" y="264.77" width="68.04" height="28.2" transform="translate(397.87 557.74) rotate(-180)"/><path class="cls-1" d="M204.1,120.75A52.24,52.24,0,1,1,99.64,122.9C99,94.06,149.56,9.78,149.56,9.78S203.5,91.91,204.1,120.75Z"/><line class="cls-1" x1="149.72" y1="11.95" x2="152.95" y2="208.36"/><line class="cls-1" x1="119.12" y1="61.15" x2="151.02" y2="80.71"/><line class="cls-1" x1="103.39" y1="98.64" x2="152.01" y2="128.44"/><line class="cls-1" x1="186.99" y1="73.76" x2="151.79" y2="97.38"/><line class="cls-1" x1="200.13" y1="113.33" x2="152.78" y2="145.11"/></svg>