<svg id="Layer_1" data-name="Layer 1" xmlns="http://www.w3.org/2000/svg" viewBox="0 0 150 150"><defs><style>.cls-1{fill:#9f2138;}</style></defs><title>icons</title><path class="cls-1" d="M65.82,40.82c1,.38,1.92.78,2.9,1.13.6.22,1.23.35,1.84.55a5.15,5.15,0,0,1,3.72,4c.71,3.1,1.65,6.16,2.51,9.22s1.69,6.16,2.62,9.21a15.32,15.32,0,0,0,1.5,3.5c3,4.92,6.13,9.76,9.12,14.68a6.37,6.37,0,0,0,4.11,3.28,11.63,11.63,0,0,1,2.1.76,3,3,0,0,1,1.84,3.36,2.8,2.8,0,0,1-2.3,2.7,3.72,3.72,0,0,1-1.85-.13q-4.43-1.38-8.82-2.88Q70.73,85.3,56.36,80.35L25.51,69.76c-3.42-1.17-6.85-2.33-10.27-3.51a8.26,8.26,0,0,1-2-.89,2.84,2.84,0,0,1-.85-4,8.29,8.29,0,0,1,1.39-1.73q6.4-6.28,12.84-12.53a11.42,11.42,0,0,1,3.71-2.43c5.63-2.31,11.2-4.74,16.8-7.12.59-.25,1.17-.53,1.77-.75a7.59,7.59,0,0,1,6.2.19,12.09,12.09,0,0,0,4.65,1.44c-1-.89-1.65-1.41-2.26-2a12.16,12.16,0,0,1-4.08-7.4,6.24,6.24,0,0,0-.87-2.36A6.61,6.61,0,0,1,52,20.89a15.85,15.85,0,0,1,15.88-11c6.2.4,10.36,3.55,13.26,8.67a15.58,15.58,0,0,1,1.51,9.36,6.05,6.05,0,0,1-2.92,4.76,10.94,10.94,0,0,0-2.83,2.53,12.77,12.77,0,0,1-10,4.91,2.73,2.73,0,0,0-.89.28C66,40.42,66,40.55,65.82,40.82ZM54.38,72.35c1.14-2.05,2.33-4.18,3.51-6.31S60,61.86,61.3,59.9a3.16,3.16,0,0,1,5-.41,5.46,5.46,0,0,1,.9,1.67c1,2.47,1.8,5,3,7.42C72,72.2,74,75.72,76,79.26a2.89,2.89,0,0,0,1.27,1.32,36.35,36.35,0,0,0,4,1c-.35-.69-.5-1.05-.7-1.38-1.89-3.1-3.81-6.17-5.67-9.28A12.35,12.35,0,0,1,73.53,68C72,62.57,70.54,57.12,69,51.69c-.31-1.12-.77-2.19-1.15-3.25-1.25-.42-2.35-.79-3.45-1.17C60.7,46,57,44.71,53.28,43.3a3.72,3.72,0,0,0-3,.06q-8.38,3.55-16.8,7a7.22,7.22,0,0,0-2.39,1.54c-2.88,2.85-5.83,5.64-8.72,8.48a5.8,5.8,0,0,0-.74,1.4l3.88,1.08,5.9-6.08a6.35,6.35,0,0,1,2.83-2c2.47-.66,4.92-1.4,7.41-2a3.17,3.17,0,0,1,3.93,3.91,29.17,29.17,0,0,1-1.2,3.63c-1,2.58-1.95,5.15-2.91,7.69C44.14,69.51,52,72.1,54.38,72.35ZM58,23.26c.73,1.18,1.47,2.2,1.43,3.59A6.43,6.43,0,0,0,60,29a7,7,0,0,0,9,4.26,6.66,6.66,0,0,0,3.45-2.7,7.25,7.25,0,0,1,3.29-3.12A8.39,8.39,0,0,0,70.52,16.8C64.91,14.92,60.86,17,58,23.26Zm5.52,46.88a6.92,6.92,0,0,0-2.54,5c1.54.55,3.11,1.14,4.7,1.66.3.1.7-.11,1.21-.21ZM37,60.8c-2.74,1.85-3.42,2.59-4.21,4.44.71.38,1.33,1.1,2.49.47C35.62,64.27,36.82,63,37,60.8Z"/><path class="cls-1" d="M30.34,78.34c2.35-.33,4.16.79,6.25,1.66L17.23,126.63c.51.21.9.51,1.22.45a2.82,2.82,0,0,0,1.34-.68,5.94,5.94,0,0,0,.9-1.32Q28,113.19,35.22,101.29c2.12-3.46,4.23-6.92,6.39-10.35,1.57-2.49,3.11-3,5.63-1.59,4.58,2.53,9.11,5.16,13.61,7.82a28.52,28.52,0,0,1,2.93,2.24,9.18,9.18,0,0,1-.42,5.54c-1.38,3.35-2.68,6.74-4.21,10-1.63,3.48-3.5,6.84-5.28,10.25a5.7,5.7,0,0,0-1,2.81h3.75c.49-.64,1.08-1.38,1.64-2.15,4.31-6,8.48-12.06,12.21-18.42.86-1.47,1.59-3,2.38-4.54a5.59,5.59,0,0,0-.24-5.8c-.71-1.18-1.62-2.25-2.45-3.36-.49-.66-1-1.3-1.67-2.16a4.4,4.4,0,0,1,1.22-.05c2.62.89,5.22,1.83,7.84,2.72A2.61,2.61,0,0,1,79.35,96a10.92,10.92,0,0,1,.22,7.21,45.68,45.68,0,0,1-4.48,9.2A226.59,226.59,0,0,1,62.2,131.5c-.38.52-.75,1-1.17,1.53a3.51,3.51,0,0,1-2.79,1.32c-3.74,0-7.48.08-11.22,0-2.62-.08-3.79-1.93-3-4.42a11.82,11.82,0,0,1,.85-1.72c2.54-4.82,5.11-9.63,7.6-14.47a99.53,99.53,0,0,0,4.89-10.93c-3.45-2.64-7.35-4.34-11.17-6.54A13.25,13.25,0,0,0,45,97.67Q37,110.77,29,123.89c-1.62,2.64-3.3,5.23-4.87,7.9A3.23,3.23,0,0,1,21,133.56c-2.56-.06-5.13,0-7.7,0H13c-3.29-.21-4.58-2.1-3.38-5.23,1.41-3.69,3-7.32,4.47-11Q21.61,99.15,29.2,81C29.57,80.12,30,79.25,30.34,78.34Z"/><path class="cls-1" d="M111.24,134.31c-6.84,0-13.67,0-20.51,0a14,14,0,0,1-6.18-1.42,7.63,7.63,0,0,1-4.22-4.95,6.12,6.12,0,0,1-.08-3.46,20.86,20.86,0,0,1,1.18-3.31,130,130,0,0,1,10.73-18.91,49.86,49.86,0,0,1,8-9.14,21.16,21.16,0,0,1,8.82-5,11,11,0,0,1,6.9.48,20,20,0,0,1,5.47,3.27,53.09,53.09,0,0,1,8.62,9.43,144.65,144.65,0,0,1,12.48,20.48,10,10,0,0,1,1.14,4.6,6.53,6.53,0,0,1-4.36,6.45,16.3,16.3,0,0,1-6.51,1.45c-7.15,0-14.31,0-21.47,0Zm25.87-7.7a9.9,9.9,0,0,0-.55-2.19,137.11,137.11,0,0,0-13.88-21.84,36,36,0,0,0-6.78-6.75,6.68,6.68,0,0,0-8.28-.21,27.63,27.63,0,0,0-5.82,5c-6,6.76-10.3,14.61-14.18,22.7a9.52,9.52,0,0,0-.7,2.11,1.63,1.63,0,0,0,1.12,2,15.08,15.08,0,0,0,4.7.77c11.53,0,23.05.08,34.57,0a64.11,64.11,0,0,0,7.62-.71A9.08,9.08,0,0,0,137.11,126.6Z"/></svg>