<svg id="Layer_1" data-name="Layer 1" xmlns="http://www.w3.org/2000/svg" viewBox="0 0 150 150"><defs><style>.cls-1{fill:#9f2138;}</style></defs><title>icons</title><path class="cls-1" d="M114.85,117.45c3.87.5,7.9.15,11.91.23s8-.09,12,0c.69,3,.74,12.71.12,16.25a11.88,11.88,0,0,1-5.67.11,19.64,19.64,0,0,1-.39-2.5c-.07-2.14,0-4.27-.06-6.33-2.68-.79-13.17-1-18.16-.3a18.08,18.08,0,0,0-.4,2c-.1,1.13,0,2.29-.18,3.4-.35,2.23-1.29,3-3.53,3.17-.88.06-1.77,0-2.66,0H33c-6.64,0-12-2.86-16.17-7.81a24.08,24.08,0,0,1-5.84-16c0-9.74.06-19.48,0-29.22a45,45,0,0,1,3.71-18c5.8-13.74,15.87-23.19,29.62-28.76A36,36,0,0,1,55,31.18c2-.16,4-.68,6-.69,17.41-.08,31.72,6.62,42.55,20.24a47.79,47.79,0,0,1,9.62,21.57,70.89,70.89,0,0,1,1,12.44c0,9.61,0,19.23,0,28.84C114.18,114.81,113.85,116.12,114.85,117.45Zm-8.22,8.34c.06-1.15.16-2.26.16-3.37,0-13.79,0-27.58,0-41.36a40.3,40.3,0,0,0-.73-7.53A41.54,41.54,0,0,0,93.3,50.32C82.74,40.5,70.22,36.14,55.71,38.4A42.92,42.92,0,0,0,29.84,52.14C22.61,60.07,18.38,69.4,18.13,80.19c-.23,9.73,0,19.48.14,29.22a17.35,17.35,0,0,0,3.2,10.35c2.92,4,6.67,6.46,11.8,6.43,5.95,0,11.89,0,17.84,0q25.62,0,51.23,0A11,11,0,0,0,106.63,125.78Z"/><path class="cls-1" d="M119.82,90.11c-.71-1.55-.45-3-.45-4.32,0-11.77,0-23.55,0-35.32,0-1.49.29-3.05-.82-4.64a12.72,12.72,0,0,0-2-.31c-2.4,0-4.81-.09-7.22,0a5.45,5.45,0,0,1-5-2,65.76,65.76,0,0,0-4.72-4.78,6.1,6.1,0,0,1,1.6-.62q7.79,0,15.57,0c4.35,0,7.57,1.81,9.15,6a8.57,8.57,0,0,1,.53,2.94q.05,19.56,0,39.12c0,2.84-1,3.94-3.76,4.15A18.69,18.69,0,0,1,119.82,90.11Z"/><path class="cls-1" d="M26.78,82.06c-.69-17.76,14.42-36.4,36.92-35.75,18.12.52,34.56,14.69,34.6,36,0,19.42-14.85,35.84-35.92,35.84C41.11,118.11,26.1,100.46,26.78,82.06Zm64.16,0c.55-14.35-11.55-28.62-28.69-28.54a28.6,28.6,0,0,0,.25,57.21C79.52,110.68,91.56,96.54,90.93,82Z"/><path class="cls-1" d="M62.57,104.11A21.74,21.74,0,0,1,40.3,82.17c0-11.55,8.36-21.83,21.89-22C75.08,60,84.34,69.53,84.59,82,84.83,93.95,74.71,104.49,62.57,104.11Zm0-7c8,0,15.17-7.16,14.8-15.15-.36-7.73-6-14.53-14.89-14.55a14.85,14.85,0,0,0,.09,29.7Z"/></svg>