<svg id="Layer_1" data-name="Layer 1" xmlns="http://www.w3.org/2000/svg" viewBox="0 0 225 110"><defs><style>.cls-1{fill:#fff;}</style></defs><title>Untitled-1</title><path class="cls-1" d="M50.5,60.81a1.84,1.84,0,0,0-.74,1.46,1.82,1.82,0,0,0,1.83,1.8h.14a2.37,2.37,0,0,0,1.4-.43C52.32,62.87,51.43,61.83,50.5,60.81Z"/><path class="cls-1" d="M80.73,66.39l-.26-7.92c-.07-2.53-.13-5.48-.09-8.94h-.09c-.69,2.92-1.61,6.24-2.37,8.67L75.7,65.94H71.07L69.2,58.25c-.56-2.37-1.25-5.68-1.74-8.71h-.07c-.13,3.12-.26,6.41-.37,8.94l-.33,7.92H61.22l1.35-22.16h8L72,50.17c.59,2.47,1.25,5.42,1.71,8.12h.13c.63-2.69,1.35-5.81,2-8.15l1.64-5.93H83.6V41L45.14,25.86v57L83.65,73V66.39Zm-25.25,0a9.32,9.32,0,0,1-.7-.8,6,6,0,0,1-3.56,1c-3.45,0-4.82-1.95-4.82-3.75a4.09,4.09,0,0,1,2.53-3.77h0a3.75,3.75,0,0,1-1-2.49C48,54.9,49.34,53,52.19,53c2.18,0,3.84,1.25,3.84,3.2a3.82,3.82,0,0,1-2.48,3.33v.08c.58.64,1.19,1.4,1.76,1.93a8.31,8.31,0,0,0,1.06-2.93h3.1a9.83,9.83,0,0,1-2.3,5.06c.76.9,1.57,1.82,2.37,2.69Z"/><path class="cls-1" d="M53.07,56.3a1.06,1.06,0,0,0-.91-1.18H52.1a1,1,0,0,0-1,1.06v0A2.44,2.44,0,0,0,52,57.9C52.7,57.36,53.07,56.91,53.07,56.3Z"/><path class="cls-1" d="M19.82,48.52h-.07c-.33,1.32-.65,3.16-1,4.4l-.95,3.94h4.11l-1-4C20.58,51.64,20.15,49.84,19.82,48.52Z"/><path class="cls-1" d="M35.55,66.76a14.24,14.24,0,0,1-3.94-.55l.65-4.75a10.1,10.1,0,0,0,2.6.36C36.77,61.82,38,61,38,57.9V44.25h4.39V25.86L3.92,41V73l38.51,9.85V64C41,65.93,38.66,66.76,35.55,66.76Zm-11.4-.36-1.41-5.13H17L15.78,66.4H9.63l6.44-22.16H24L30.58,66.4Z"/><path class="cls-1" d="M103.31,59.78h1.5v2.16a3.56,3.56,0,0,1-.63,2.16,2.65,2.65,0,0,1-2.25.83,3.84,3.84,0,0,1-1.41-.23,2.21,2.21,0,0,1-.89-.62,2.29,2.29,0,0,1-.46-.95A5.11,5.11,0,0,1,99,62V50.29a5.11,5.11,0,0,1,.13-1.19,2.37,2.37,0,0,1,.46-1,2.15,2.15,0,0,1,.89-.63,3.84,3.84,0,0,1,1.41-.23,2.62,2.62,0,0,1,2.25.84,3.56,3.56,0,0,1,.63,2.16v1.9h-1.5v-1.9A2,2,0,0,0,103,49.1a1.45,1.45,0,0,0-2.12,0,2.18,2.18,0,0,0-.28,1.19V61.94a2.14,2.14,0,0,0,.3,1.19,1.45,1.45,0,0,0,2.14,0,2.12,2.12,0,0,0,.3-1.19Z"/><path class="cls-1" d="M112.6,47.29a3.87,3.87,0,0,1,1.4.23,2.14,2.14,0,0,1,.9.63,2.37,2.37,0,0,1,.46,1,5.15,5.15,0,0,1,.13,1.19V62a5.15,5.15,0,0,1-.13,1.19,2.29,2.29,0,0,1-.46.95,2.2,2.2,0,0,1-.9.62,4.59,4.59,0,0,1-2.81,0,2.21,2.21,0,0,1-.89-.62,2.29,2.29,0,0,1-.46-.95,5.11,5.11,0,0,1-.13-1.19V50.29a5.11,5.11,0,0,1,.13-1.19,2.37,2.37,0,0,1,.46-1,2.15,2.15,0,0,1,.89-.63A3.84,3.84,0,0,1,112.6,47.29Zm0,16.33a1.19,1.19,0,0,0,1.07-.45A2.18,2.18,0,0,0,114,62V50.29a2.18,2.18,0,0,0-.28-1.19,1.48,1.48,0,0,0-2.1,0l0,0a2.18,2.18,0,0,0-.28,1.19V62a2.18,2.18,0,0,0,.28,1.19,1.19,1.19,0,0,0,1.07.45Z"/><path class="cls-1" d="M122.36,55.2q0,1.9,0,4v5.55h-1.45V47.53h1.52L126,61q0-2-.09-3.93t0-3.93V47.54h1.57V64.74h-1.52l-3.56-13.42Q122.31,53.31,122.36,55.2Z"/><path class="cls-1" d="M136.83,59.87a5.29,5.29,0,0,0-.31-2,3.84,3.84,0,0,0-.77-1.19,5.44,5.44,0,0,0-1-.82,5.39,5.39,0,0,1-1-.82,3.83,3.83,0,0,1-.77-1.19,5.36,5.36,0,0,1-.31-2V50.29a5.59,5.59,0,0,1,.12-1.19,2.37,2.37,0,0,1,.44-1,2,2,0,0,1,.89-.63,4.75,4.75,0,0,1,2.85,0,2,2,0,0,1,.89.63,2.37,2.37,0,0,1,.44,1,5.61,5.61,0,0,1,.12,1.19v1.9h-1.55v-1.9a2.29,2.29,0,0,0-.27-1.19,1.1,1.1,0,0,0-1.06-.47,1.19,1.19,0,0,0-1.07.45,2.37,2.37,0,0,0-.26,1.19v1.45a3.77,3.77,0,0,0,.31,1.67,3.26,3.26,0,0,0,.77,1,8.9,8.9,0,0,0,1,.76,4.6,4.6,0,0,1,1,.91,4.54,4.54,0,0,1,.77,1.41,7.12,7.12,0,0,1,.31,2.31v2.11a5.6,5.6,0,0,1-.12,1.19,2.37,2.37,0,0,1-.44,1,2,2,0,0,1-.89.63,4.75,4.75,0,0,1-2.85,0,2,2,0,0,1-.89-.63,2.37,2.37,0,0,1-.44-1,5.59,5.59,0,0,1-.12-1.19V59.78h1.55v2.14a2.25,2.25,0,0,0,.28,1.19,1.41,1.41,0,0,0,2,.12l.12-.12a2.37,2.37,0,0,0,.26-1.19Z"/><path class="cls-1" d="M146.28,64.74h-1.55V49h-2.06V47.53h5.66V49h-2Z"/><path class="cls-1" d="M153,47.53h2.82a4,4,0,0,1,1.45.23,2.25,2.25,0,0,1,.9.61,2.08,2.08,0,0,1,.45.94,5.61,5.61,0,0,1,.12,1.19v3.88a3.69,3.69,0,0,1-.43,1.86,2.11,2.11,0,0,1-1.51,1l2.78,7.52h-1.72l-2.53-7.43h-.78v7.43H153Zm2.73,8.31a1.42,1.42,0,0,0,1.19-.39,1.76,1.76,0,0,0,.31-1.1V50.5a1.61,1.61,0,0,0-.33-1.09,1.46,1.46,0,0,0-1.19-.38h-1.19v6.86Z"/><path class="cls-1" d="M165.56,62a2.37,2.37,0,0,0,.27,1.19,1.19,1.19,0,0,0,1.08.46,1.12,1.12,0,0,0,1.07-.46,2.37,2.37,0,0,0,.26-1.19V47.53h1.55V62a5,5,0,0,1-.13,1.19,2.37,2.37,0,0,1-.46,1,2.25,2.25,0,0,1-.89.64,3.56,3.56,0,0,1-1.39.24,4,4,0,0,1-1.42-.23,2.14,2.14,0,0,1-.9-.63,2.27,2.27,0,0,1-.45-1A5.59,5.59,0,0,1,164,62V47.53h1.55Z"/><path class="cls-1" d="M179.36,59.78h1.51v2.16a3.56,3.56,0,0,1-.63,2.16,2.65,2.65,0,0,1-2.25.83,3.84,3.84,0,0,1-1.41-.23,2.21,2.21,0,0,1-.89-.62,2.29,2.29,0,0,1-.46-.95,5.11,5.11,0,0,1-.13-1.19V50.29a5.11,5.11,0,0,1,.13-1.19,2.37,2.37,0,0,1,.46-1,2.15,2.15,0,0,1,.89-.63,3.84,3.84,0,0,1,1.41-.23,2.62,2.62,0,0,1,2.25.84,3.56,3.56,0,0,1,.63,2.16v1.9h-1.5v-1.9A2,2,0,0,0,179,49.1a1.45,1.45,0,0,0-2.12,0,2.18,2.18,0,0,0-.28,1.19V61.94a2.14,2.14,0,0,0,.3,1.19,1.45,1.45,0,0,0,2.14,0,2.12,2.12,0,0,0,.3-1.19Z"/><path class="cls-1" d="M188.62,64.74h-1.55V49H185V47.53h5.66V49h-2Z"/><path class="cls-1" d="M195.33,47.53h1.55V64.73h-1.55Z"/><path class="cls-1" d="M205.19,47.29a3.87,3.87,0,0,1,1.4.23,2.14,2.14,0,0,1,.9.63,2.37,2.37,0,0,1,.46,1,5.15,5.15,0,0,1,.13,1.19V62a5.15,5.15,0,0,1-.13,1.19,2.29,2.29,0,0,1-.46.95,2.2,2.2,0,0,1-.9.62,4.59,4.59,0,0,1-2.81,0,2.21,2.21,0,0,1-.89-.62,2.29,2.29,0,0,1-.46-.95A5.11,5.11,0,0,1,202.3,62V50.29a5.11,5.11,0,0,1,.13-1.19,2.37,2.37,0,0,1,.46-1,2.15,2.15,0,0,1,.89-.63A3.84,3.84,0,0,1,205.19,47.29Zm0,16.33a1.19,1.19,0,0,0,1.07-.45,2.18,2.18,0,0,0,.28-1.19V50.29a2.18,2.18,0,0,0-.28-1.19,1.48,1.48,0,0,0-2.1,0l0,0a2.18,2.18,0,0,0-.28,1.19V62a2.18,2.18,0,0,0,.28,1.19,1.19,1.19,0,0,0,1.07.45Z"/><path class="cls-1" d="M215,55.2v9.54H213.5V47.53H215L218.58,61q0-2-.09-3.93t0-3.93V47.54H220V64.74h-1.52l-3.56-13.42Q214.9,53.31,215,55.2Z"/></svg>